<svg width="17" height="17" viewBox="0 0 17 17" fill="none" xmlns="http://www.w3.org/2000/svg">
<g clip-path="url(#clip0_62_508)">
<path fill-rule="evenodd" clip-rule="evenodd" d="M4.25 2.125C4.25 1.56141 4.47388 1.02091 4.8724 0.622398C5.27091 0.223883 5.81141 0 6.375 0L14.875 0C15.4386 0 15.9791 0.223883 16.3776 0.622398C16.7761 1.02091 17 1.56141 17 2.125V10.625C17 11.1886 16.7761 11.7291 16.3776 12.1276C15.9791 12.5261 15.4386 12.75 14.875 12.75H6.375C5.81141 12.75 5.27091 12.5261 4.8724 12.1276C4.47388 11.7291 4.25 11.1886 4.25 10.625V2.125ZM6.375 1.0625C6.09321 1.0625 5.82296 1.17444 5.6237 1.3737C5.42444 1.57296 5.3125 1.84321 5.3125 2.125V10.625C5.3125 10.9068 5.42444 11.177 5.6237 11.3763C5.82296 11.5756 6.09321 11.6875 6.375 11.6875H14.875C15.1568 11.6875 15.427 11.5756 15.6263 11.3763C15.8256 11.177 15.9375 10.9068 15.9375 10.625V2.125C15.9375 1.84321 15.8256 1.57296 15.6263 1.3737C15.427 1.17444 15.1568 1.0625 14.875 1.0625H6.375ZM2.125 5.3125C1.84321 5.3125 1.57296 5.42444 1.3737 5.6237C1.17444 5.82296 1.0625 6.09321 1.0625 6.375V14.875C1.0625 15.1568 1.17444 15.427 1.3737 15.6263C1.57296 15.8256 1.84321 15.9375 2.125 15.9375H10.625C10.9068 15.9375 11.177 15.8256 11.3763 15.6263C11.5756 15.427 11.6875 15.1568 11.6875 14.875V13.8125H12.75V14.875C12.75 15.4386 12.5261 15.9791 12.1276 16.3776C11.7291 16.7761 11.1886 17 10.625 17H2.125C1.56141 17 1.02091 16.7761 0.622398 16.3776C0.223883 15.9791 0 15.4386 0 14.875V6.375C0 5.81141 0.223883 5.27091 0.622398 4.8724C1.02091 4.47388 1.56141 4.25 2.125 4.25H3.1875V5.3125H2.125Z" fill="black"/>
</g>
<defs>
<clipPath id="clip0_62_508">
<rect width="17" height="17" fill="white"/>
</clipPath>
</defs>
</svg>
